<svg width="230" height="157" viewBox="0 0 230 157" fill="none" xmlns="http://www.w3.org/2000/svg">
<g opacity="0.2" clip-path="url(#clip0_37_9)">
<path fill-rule="evenodd" clip-rule="evenodd" d="M184.9 16.6L192 23.7L174.6 41.1C173.7 40.4 172.6 39.8 171.2 38.9C170.6 38.5 170.1 38.3 169.4 37.9C163.7 34.8 157.6 33.1 151.2 32.8H146.6C143.5 33 140.3 33.4 137.2 34.2C127.8 36.6 131.5 40.8 134.7 47.7C138.8 56.6 141.7 52.4 148.1 52.4C158.8 52.4 166.9 58.4 170.9 66.7C174 73 173.9 80.7 171 87C167.8 94 161.6 99 154.1 100.8C147.4 102.4 141.3 100.9 135.7 97.6C133.7 96.4 132.7 95.4 131.1 93.9C126.5 89.3 124 82.7 124.1 75.4C124.2 70.3 122.7 64.7 121.3 61.1C120.9 60.1 120.6 59.2 120.1 58.3C117.5 53.1 115.3 50 111.3 45.9L109.2 43.7C102.1 37.3 91.5 32.7 81.8 32.7C72 32.7 65.6 34 57.7 38.7C56.5 39.4 55.5 40 54.5 40.7C49 44.8 42.6 51.8 40 58.2C37.7 63.9 35.8 68.3 35.8 75.2C35.8 86 37.5 92.3 42.2 100L23.8 118.4L16.7 111.3L0 156.5L45.2 139.9L38.1 132.8L56.3 114.6C56.7 114.9 57.1 115.1 57.5 115.3C64 118.9 70.6 121 77.5 121.3H82.4C85.4 121.1 88.4 120.7 91.5 119.9C100.4 117.7 97.7 113.8 94 106.4C91.1 100.6 90.3 100.2 84.1 101.2C78.8 102 74.7 101.6 70.2 99.5C57.9 94 51.9 79.4 57.7 67.1C65 51.5 84.8 47.5 97.6 60.2C102.2 64.8 104.7 71.4 104.6 78.7C104.5 84.1 106 88.8 107.4 92.8C113.1 108.6 129.8 121.4 146.7 121.4C155.1 121.4 160.5 120.8 167.7 117.2C177.7 112.2 183.8 106 188.9 96C191.4 90.9 192.8 85.1 193.1 79.1V75.1C192.8 68.5 191.2 62.1 188.1 56.6L188 56.5L206.3 38L213.4 45.1L230 0L184.9 16.6Z" fill="url(#paint0_linear_37_9)"/>
</g>
<defs>
<linearGradient id="paint0_linear_37_9" x1="115" y1="0" x2="115" y2="156.5" gradientUnits="userSpaceOnUse">
<stop/>
<stop offset="1" stop-color="#0000FE"/>
</linearGradient>
<clipPath id="clip0_37_9">
<rect width="230" height="156.5" fill="white"/>
</clipPath>
</defs>
</svg>
