<svg width="400" height="103" viewBox="0 0 400 103" fill="none" xmlns="http://www.w3.org/2000/svg">
<g clip-path="url(#clip0_27_2)">
<path fill-rule="evenodd" clip-rule="evenodd" d="M0 102.791V103L0.20926 102.896C0.732409 102.896 6.59168 100.6 7.53335 100.287C9.83521 99.4519 12.451 98.5127 14.8574 97.5735C16.5315 96.9473 29.1917 92.46 29.401 92.1469C28.8778 91.4164 27.7269 90.4772 27.0991 89.8511C26.6806 89.4336 25.0065 87.8683 24.7973 87.5552L36.8297 75.5542L39.864 77.1196C45.8279 80.0415 52.3149 80.772 58.9066 79.4154C66.3353 77.85 64.9752 75.7629 61.627 69.3972C60.2668 66.6839 59.639 66.0577 55.7677 66.5795C52.8381 66.997 50.4316 66.997 47.7112 66.1621C41.3288 64.075 36.3066 57.9179 36.4112 50.4043C36.6205 40.2817 46.4557 32.5593 56.2909 34.9595C63.5103 36.7335 68.2187 42.4731 68.8465 49.5694C68.9511 51.0304 68.8465 52.4914 69.0557 53.848C69.1603 55.1003 69.3696 56.4569 69.7881 57.7092C72.1946 66.7882 77.8446 73.3627 86.1104 77.4326C90.6095 79.6241 95.841 80.3546 101.491 79.8328C110.698 78.998 118.964 73.2584 123.463 65.7447C127.439 59.0659 128.695 51.5522 126.707 43.5167C126.393 42.2644 126.079 41.2209 125.66 40.1773C125.451 39.6555 125.242 39.1337 124.928 38.612C124.719 38.1945 124.3 37.5684 124.196 37.151L130.369 30.9939C131.415 29.9504 132.357 29.0111 133.403 27.9676C133.717 27.6545 136.123 25.1499 136.542 24.9412L141.146 29.5329C141.46 29.1155 143.448 23.3759 143.866 22.228C144.808 19.7234 145.749 17.2188 146.586 14.923C147.005 13.8794 151.713 1.14792 151.923 0.313068V0.104355H151.713C150.981 0.208711 138.111 5.00912 137.065 5.42654C135.391 6.05268 122.835 10.54 122.522 10.8531L127.125 15.4448C126.916 15.9666 118.023 24.6282 116.976 25.6717C116.558 26.0892 115.93 26.8197 115.511 27.0284C115.093 26.8197 114.57 26.4022 114.047 26.0892C110.28 23.7933 106.932 22.3323 102.328 21.7062C98.3521 21.1844 88.9354 21.6018 87.1567 24.3151C86.0058 25.9848 88.0984 29.2199 88.9354 30.9939C89.9817 33.0811 90.9234 35.4813 93.9576 35.0638C95.4224 34.8551 96.4687 34.542 98.0382 34.4377C110.489 34.4377 118.232 47.2736 113.105 57.6049C111.117 61.6748 107.664 64.7011 103.27 66.1621C95.9456 68.5623 87.8891 64.9098 84.4363 58.8571C81.0881 53.0132 82.9715 49.9868 81.2974 43.5167C80.6696 41.0122 79.8326 39.0294 78.6817 36.9423C77.0076 33.7072 75.0196 31.6201 72.6131 29.2199C70.4159 26.924 67.277 25.1499 64.3474 23.7933C59.7437 21.7062 54.0936 21.08 48.4436 21.8105C43.2121 22.4367 38.8177 24.6282 35.4695 27.1327C29.8195 31.307 26.2621 36.6292 24.3788 43.5167C23.0186 48.2128 23.4371 54.9959 24.9019 59.692C25.9482 62.9271 26.6806 63.6575 27.8315 65.9534C27.5177 66.3708 25.3204 68.5623 24.7973 69.0841C21.763 72.0061 18.6241 75.3455 15.6945 78.1631C15.3806 77.9544 13.7065 76.2847 13.288 75.8673C12.6602 75.2411 11.7185 74.1976 10.9861 73.5714C10.7769 73.7801 3.87131 92.5643 2.82501 95.4863C2.30186 96.5299 0.10463 102.165 0 102.791Z" fill="#0000FE"/>
<path d="M389.956 48.4215V56.0395H387.444V62.9271H378.865V44.5603C378.865 41.0122 379.806 38.2989 381.794 36.3161C383.678 34.3333 386.398 33.3941 389.956 33.3941C393.304 33.3941 395.815 34.229 397.489 36.003C399.058 37.7771 399.895 40.4904 399.895 44.1429V62.7183H391.316V44.769C391.316 43.6211 391.211 42.8906 390.897 42.4732C390.583 42.0557 390.165 41.847 389.432 41.847C388.072 41.847 387.444 42.7862 387.444 44.769V48.3171H389.956V48.4215ZM373.842 34.1246V62.8227H365.263V34.1246H373.842ZM359.508 34.1246V62.8227H350.929V34.1246H359.508ZM349.568 44.3516V51.9696H347.162V62.8227H338.582V34.1246H347.162V44.4559H349.568V44.3516ZM323.516 48.4215V56.0395H321.004V62.9271H312.425V44.5603C312.425 41.0122 313.366 38.2989 315.354 36.3161C317.238 34.3333 319.958 33.3941 323.516 33.3941C326.864 33.3941 329.375 34.229 331.049 36.003C332.618 37.7771 333.455 40.4904 333.455 44.1429V62.7183H324.876V44.769C324.876 43.6211 324.771 42.8906 324.457 42.4732C324.143 42.0557 323.725 41.847 322.992 41.847C321.632 41.847 321.004 42.7862 321.004 44.769V48.3171H323.516V48.4215ZM288.465 34.1246H298.928C305.101 34.1246 308.24 36.5248 308.24 41.4296C308.24 43.8298 307.193 45.8126 305.101 47.4823C308.135 48.8389 309.704 51.2391 309.704 54.5785C309.704 57.1874 308.763 59.2746 306.984 60.8399C306.147 61.5704 305.205 62.0922 304.159 62.4053C303.113 62.7183 301.753 62.8227 300.078 62.8227H298.404V55.4134H299.869C300.706 55.4134 301.334 55.309 301.648 55.1003C301.962 54.8916 302.171 54.4742 302.171 53.9524C302.171 53.0132 301.439 52.5957 299.974 52.5957H298.3V44.8734C299.869 44.8734 300.706 44.3516 300.706 43.2037C300.706 42.1601 299.974 41.7427 298.614 41.7427H297.044V62.7183H288.465V34.1246ZM258.54 41.847C256.762 41.847 255.297 42.4732 254.041 43.7254C252.786 44.9777 252.158 46.5431 252.158 48.4215C252.158 50.1955 252.786 51.7609 254.041 53.1175C255.297 54.3698 256.762 54.996 258.54 54.996C260.319 54.996 261.784 54.3698 263.039 53.1175C264.295 51.8653 264.923 50.2999 264.923 48.4215C264.923 46.5431 264.295 45.0821 263.039 43.7254C261.784 42.4732 260.319 41.847 258.54 41.847ZM258.75 33.3941C262.83 33.3941 266.283 34.8551 269.213 37.7771C272.142 40.6991 273.607 44.2472 273.607 48.4215C273.607 52.5957 272.142 56.1439 269.213 59.0659C266.283 61.9878 262.726 63.4488 258.54 63.4488C254.355 63.4488 250.798 61.9878 247.868 59.0659C244.938 56.1439 243.474 52.5957 243.474 48.4215C243.474 44.2472 244.939 40.6991 247.973 37.7771C250.798 34.8551 254.46 33.3941 258.75 33.3941ZM239.602 45.2908V51.6565H234.057C233.325 51.6565 232.801 51.7609 232.488 51.9696C232.174 52.1783 231.964 52.5957 231.964 53.1175C231.964 53.7437 232.174 54.1611 232.488 54.2655C232.801 54.4742 233.429 54.5785 234.476 54.5785H240.23V62.7183H233.534C230.395 62.7183 227.988 61.9878 226.314 60.4225C224.64 58.9615 223.803 56.77 223.803 53.9524V42.7862C223.803 40.073 224.64 37.8815 226.21 36.4205C227.779 34.8551 229.976 34.1246 232.906 34.1246H240.335V42.3688H234.894C233.429 42.3688 232.697 42.8906 232.697 43.8298C232.697 44.3516 232.906 44.769 233.22 44.9777C233.534 45.1864 234.162 45.2908 235.103 45.2908H239.602ZM201.308 42.3688V62.8227H192.728V34.1246H203.819C208.737 34.1246 212.503 35.2725 215.328 37.464C218.572 40.073 220.246 43.7254 220.246 48.2128C220.246 52.5957 218.886 56.1439 216.061 58.8571C213.236 61.5704 209.678 63.0314 205.179 63.0314C204.656 63.0314 203.819 63.0314 202.668 62.9271V54.4742H204.028C209.05 54.4742 211.457 52.387 211.457 48.2128C211.457 44.3516 209.05 42.3688 204.133 42.3688H201.308ZM190.845 25.9848L184.986 31.7244H179.754L184.986 25.9848H190.845ZM186.974 34.1246V62.8227H178.394V34.1246H186.974ZM176.511 34.1246L163.955 64.4924L151.504 34.1246H161.444L164.06 43.0993L166.989 34.1246H176.511Z" fill="#0000FE"/>
<path d="M391.42 82.4417L393.094 81.92C393.304 82.5461 393.618 83.0679 394.141 83.381C394.559 83.694 395.187 83.9027 395.815 83.9027C396.443 83.9027 396.966 83.694 397.384 83.381C397.803 83.0679 398.012 82.5461 398.012 81.92C398.012 81.3982 397.803 81.0851 397.489 80.772C397.175 80.459 396.443 80.1459 395.396 79.7285C394.141 79.3111 393.199 78.7893 392.676 78.2675C392.153 77.7457 391.839 77.1196 391.839 76.2847C391.839 75.3455 392.153 74.615 392.885 73.9889C393.618 73.3627 394.455 73.0497 395.606 73.0497C396.338 73.0497 397.07 73.154 397.594 73.4671C398.221 73.7802 398.744 74.1976 399.268 74.8237L398.012 75.9716C397.593 75.4499 397.175 75.1368 396.861 74.9281C396.443 74.7194 396.024 74.615 395.606 74.615C395.082 74.615 394.664 74.7194 394.245 75.0324C393.931 75.3455 393.722 75.6586 393.722 76.076C393.722 76.3891 393.827 76.7021 394.036 77.0152C394.245 77.2239 394.559 77.537 395.082 77.7457C395.501 77.9544 396.024 78.1631 396.652 78.3718C397.28 78.5806 397.594 78.6849 397.698 78.7893C398.535 79.2067 399.058 79.7285 399.372 80.1459C399.686 80.5633 399.791 81.1895 399.791 81.92C399.791 82.9635 399.372 83.7984 398.64 84.4245C397.907 85.0507 396.966 85.3637 395.71 85.3637C394.559 85.3637 393.618 85.0507 392.781 84.5289C392.153 84.2158 391.63 83.4853 391.42 82.4417ZM373.319 85.2594V73.3627H383.259V74.9281H375.203V78.2675H382.736V79.7285H375.203V83.5897H383.259V85.155H373.319V85.2594ZM361.705 85.2594L356.474 77.3283C356.369 77.1196 356.265 76.9108 356.055 76.7021C355.951 76.3891 355.742 76.076 355.532 75.6586C355.532 75.9716 355.637 76.2847 355.637 76.5978C355.637 76.9108 355.637 77.4326 355.637 78.1631V85.2594H353.754V73.3627H355.742L360.764 80.9808C360.973 81.2938 361.078 81.6069 361.287 81.92C361.496 82.233 361.601 82.6505 361.81 83.0679C361.705 82.6505 361.705 82.233 361.705 81.8156C361.705 81.3982 361.705 80.9808 361.705 80.5633V73.4671H363.589V85.3637H361.705V85.2594ZM344.128 85.2594H342.244V73.3627H344.128V85.2594ZM330.526 78.7893C331.467 78.998 332.2 79.3111 332.723 79.8328C333.141 80.3546 333.455 80.9808 333.455 81.92C333.455 83.1722 333.037 84.0071 332.095 84.5289C331.258 85.0507 329.793 85.3637 327.91 85.3637H323.829V73.3627H327.387C328.433 73.3627 329.27 73.3627 329.793 73.4671C330.317 73.5714 330.63 73.6758 330.944 73.7801C331.467 74.0932 331.781 74.4063 332.095 74.8237C332.304 75.2411 332.514 75.7629 332.514 76.3891C332.514 77.0152 332.304 77.537 331.991 77.8501C331.572 78.2675 331.154 78.5806 330.526 78.7893ZM325.713 78.2675H327.073C328.329 78.2675 329.27 78.1631 329.689 77.8501C330.212 77.6413 330.421 77.1196 330.421 76.4934C330.421 75.8673 330.212 75.4499 329.793 75.1368C329.375 74.9281 328.433 74.8237 327.073 74.8237H325.713V78.2675ZM325.713 83.7984H327.387C328.956 83.7984 330.003 83.694 330.526 83.381C331.049 83.0679 331.363 82.5461 331.363 81.8156C331.363 81.0851 331.049 80.5633 330.526 80.2503C330.003 79.9372 328.956 79.8328 327.282 79.8328H325.608V83.7984H325.713ZM313.68 85.2594L312.529 82.233H306.879L305.728 85.2594H303.74L308.658 73.3627H310.751L315.668 85.2594H313.68ZM307.403 80.8764H312.006L309.704 75.0324L307.403 80.8764ZM297.044 84.4245C296.521 84.842 295.998 85.0507 295.37 85.2594C294.742 85.4681 294.01 85.5724 293.278 85.5724C292.44 85.5724 291.603 85.4681 290.871 85.155C290.139 84.842 289.511 84.5289 288.988 83.9027C288.36 83.2766 287.941 82.6505 287.627 81.92C287.314 81.1895 287.209 80.2503 287.209 79.3111C287.209 78.3718 287.314 77.537 287.627 76.7021C287.941 75.9716 288.36 75.2411 288.883 74.615C289.406 74.0932 290.034 73.6758 290.766 73.4671C291.499 73.154 292.336 73.0497 293.173 73.0497C293.905 73.0497 294.533 73.154 295.161 73.3627C295.789 73.5714 296.312 73.7801 296.835 74.1976V76.2847C296.312 75.7629 295.789 75.3455 295.265 75.1368C294.742 74.9281 294.01 74.7194 293.382 74.7194C292.127 74.7194 291.185 75.1368 290.453 75.9716C289.72 76.8065 289.302 77.9544 289.302 79.3111C289.302 80.772 289.72 81.92 290.453 82.7548C291.185 83.5897 292.231 84.0071 293.591 84.0071C294.324 84.0071 294.952 83.9027 295.579 83.5897C296.207 83.381 296.73 82.9635 297.253 82.4417V84.4245H297.044Z" fill="#FEFEFE"/>
</g>
<defs>
<clipPath id="clip0_27_2">
<rect width="400" height="103" fill="white"/>
</clipPath>
</defs>
</svg>
