<svg width="222" height="35" viewBox="0 0 222 35" fill="none" xmlns="http://www.w3.org/2000/svg">
<g clip-path="url(#clip0_2909_69)">
<path d="M4.7 21.3C4.7 26 8.5 29.7 13.1 29.7H26.2V34.4H13.1C5.9 34.4 0 28.5 0 21.3C0 14 5.9 8.09998 13.1 8.09998H26.2V12.8H13.1C8.5 12.8 4.7 16.6 4.7 21.3Z" fill="black"/>
<path d="M55.8004 34.4H50.5004L48.1004 29.7L42.3004 18.5L36.6004 29.7L34.2004 34.4H28.9004L31.3004 29.7L42.3004 8.09998L53.3004 29.7L55.8004 34.4Z" fill="black"/>
<path d="M84.7004 8.09998V34.4H80.0004V17.7L75.3004 21.2L71.5004 24.2L67.7004 21.2L63.1004 17.7V34.4H58.4004V8.09998L63.1004 11.7L71.5004 18.2L80.0004 11.7L84.7004 8.09998Z" fill="black"/>
<path d="M114.1 34.4H108.9L106.5 29.7L100.7 18.5L94.9998 29.7L92.5998 34.4H87.2998L89.6998 29.7L100.7 8.09998L111.7 29.7L114.1 34.4Z" fill="black"/>
<path d="M137.4 29.7999V34.5H124.1C122.8 34.5 121.5 34.1999 120.4 33.5999C118.7 32.7999 117.4 31.4 116.6 29.7999C116 28.6999 115.7 27.4 115.7 26.1V8.19995H120.4V26.6C120.6 28.3 121.9 29.5999 123.6 29.7999H137.4Z" fill="black"/>
<path d="M146.3 15.2V17.6H163.2V22.3H146.3V27.3C146.3 28.6 147.4 29.7 148.7 29.7H167.9V34.4H148.7C144.8 34.4 141.6 31.2 141.6 27.3V15.2C141.6 11.3 144.8 8.09998 148.7 8.09998H167.9V12.8H148.7C147.4 12.8 146.3 13.9 146.3 15.2Z" fill="black"/>
<path d="M197.3 34.4H192.1L189.7 29.7L183.9 18.5L178.2 29.7L175.8 34.4H170.5L172.9 29.7L183.9 8.09998L194.9 29.7L197.3 34.4Z" fill="black"/>
<path d="M222 21.3C222 28.5 216.1 34.4 208.9 34.4C201.7 34.4 195.8 28.5 195.8 21.3C195.8 14.1 201.7 8.19998 208.9 8.19998C216.1 8.09998 222 14 222 21.3ZM217.3 21.3C217.3 16.6 213.5 12.9 208.9 12.9C204.2 12.9 200.5 16.7 200.5 21.3C200.5 26 204.3 29.7 208.9 29.7C213.5 29.7 217.3 25.9 217.3 21.3Z" fill="black"/>
<path d="M176.6 5.69998V1.99998C177.8 0.699976 179.2 0.0999756 180.7 0.0999756C181.3 0.0999756 181.8 0.199976 182.3 0.299976C182.8 0.399976 183.7 0.699975 185 1.29998C186.3 1.79998 187.2 2.09998 187.6 2.09998C188.1 2.09998 188.7 1.89998 189.4 1.59998C190.1 1.29998 190.8 0.799976 191.4 0.0999756V3.89998C191 4.29998 190.4 4.79998 189.6 5.19998C188.8 5.59998 188 5.79998 187.2 5.79998C186.7 5.79998 186.3 5.69998 185.8 5.59998C185.4 5.49998 184.7 5.19998 183.7 4.79998C182.3 4.19998 181.1 3.89998 180.3 3.89998C179.1 3.69998 177.8 4.39998 176.6 5.69998Z" fill="#D30676"/>
</g>
<defs>
<clipPath id="clip0_2909_69">
<rect width="222" height="34.5" fill="white"/>
</clipPath>
</defs>
</svg>
